<svg height="512pt" viewBox="0 0 512 512" width="512pt" xmlns="http://www.w3.org/2000/svg">
  <path d="m256 0c-141.164062 0-256 114.835938-256 256s114.835938 256 256 256 256-114.835938 256-256-114.835938-256-256-256zm21.332031 273.40625v67.925781c0 11.777344-9.535156 21.335938-21.332031 21.335938s-21.332031-9.558594-21.332031-21.335938v-67.925781c-24.769531-8.832031-42.667969-32.296875-42.667969-60.074219 0-35.285156 28.714844-64 64-64s64 28.714844 64 64c0 27.777344-17.898438 51.242188-42.667969 60.074219zm0 0"/>
</svg>