<?xml version="1.0" encoding="iso-8859-1"?>
<!-- Generator: Adobe Illustrator 16.0.0, SVG Export Plug-In . SVG Version: 6.00 Build 0)  -->
<!DOCTYPE svg PUBLIC "-//W3C//DTD SVG 1.1//EN" "http://www.w3.org/Graphics/SVG/1.1/DTD/svg11.dtd">
<svg version="1.1" id="Capa_1" xmlns="http://www.w3.org/2000/svg" xmlns:xlink="http://www.w3.org/1999/xlink" x="0px" y="0px"
	 width="373.118px" height="373.118px" viewBox="0 0 373.118 373.118" style="enable-background:new 0 0 373.118 373.118;"
	 xml:space="preserve">
<g>
	<g>
		<g id="Layer_5_59_">
			<g>
				<circle cx="186.334" cy="186.784" r="97.907"/>
				<path d="M212.987,26.592c0,14.683-11.904,26.591-26.591,26.591s-26.592-11.908-26.592-26.591
					C159.804,11.904,171.709,0,186.396,0S212.987,11.906,212.987,26.592z"/>
				<path d="M328.619,71.089c0,14.683-11.902,26.592-26.592,26.592c-14.688,0-26.593-11.909-26.593-26.592
					c0-14.688,11.904-26.592,26.593-26.592C316.717,44.498,328.619,56.403,328.619,71.089z"/>
				<circle cx="346.527" cy="186.783" r="26.591"/>
				<path d="M328.619,302.028c0,14.684-11.902,26.592-26.592,26.592c-14.688,0-26.593-11.908-26.593-26.592
					c0-14.688,11.904-26.593,26.593-26.593C316.717,275.436,328.619,287.339,328.619,302.028z"/>
				<path d="M212.926,346.526c0,14.684-11.903,26.592-26.592,26.592c-14.688,0-26.592-11.908-26.592-26.592
					c0-14.688,11.904-26.593,26.592-26.593C201.021,319.934,212.926,331.838,212.926,346.526z"/>
				<path d="M97.358,302.028c0,14.684-11.904,26.592-26.592,26.592c-14.687,0-26.592-11.908-26.592-26.592
					c0-14.688,11.905-26.593,26.592-26.593C85.454,275.436,97.358,287.339,97.358,302.028z"/>
				<circle cx="26.592" cy="186.783" r="26.592"/>
				<path d="M97.358,71.089c0,14.683-11.904,26.592-26.592,26.592c-14.687,0-26.592-11.909-26.592-26.592
					c0-14.688,11.905-26.592,26.592-26.592C85.454,44.498,97.358,56.403,97.358,71.089z"/>
			</g>
		</g>
	</g>
</g>
<g>
</g>
<g>
</g>
<g>
</g>
<g>
</g>
<g>
</g>
<g>
</g>
<g>
</g>
<g>
</g>
<g>
</g>
<g>
</g>
<g>
</g>
<g>
</g>
<g>
</g>
<g>
</g>
<g>
</g>
</svg>
