<svg id="Layer_1" enable-background="new 0 0 496 496" height="512" viewBox="0 0 496 496" width="512" xmlns="http://www.w3.org/2000/svg"><path d="m496 248c0 8.836-7.163 16-16 16h-24c-8.837 0-16-7.164-16-16s7.163-16 16-16h24c8.837 0 16 7.164 16 16zm-248-192c8.837 0 16-7.164 16-16v-24c0-8.836-7.163-16-16-16s-16 7.164-16 16v24c0 8.836 7.163 16 16 16zm158.188 56.25 17.068-17.06c6.25-6.247 6.253-16.377.006-22.627s-16.378-6.253-22.627-.005l-17.068 17.06c-6.25 6.247-6.253 16.377-.006 22.627 6.245 6.247 16.376 6.253 22.627.005zm-316.725.144c3.124 3.123 7.217 4.684 11.311 4.684 14.129 0 21.423-17.209 11.311-27.316l-17.068-17.06c-6.25-6.247-16.381-6.244-22.627.005-6.247 6.25-6.244 16.381.006 22.627zm-49.463 120.606h-24c-8.837 0-16 7.164-16 16s7.163 16 16 16h24c8.837 0 16-7.164 16-16s-7.163-16-16-16zm366.537 151.333c-6.25-6.248-16.381-6.244-22.627.005-6.247 6.25-6.244 16.381.006 22.627l17.068 17.06c6.248 6.246 16.379 6.245 22.627-.005 6.247-6.25 6.244-16.381-.006-22.627zm-158.537 55.667c-8.837 0-16 7.164-16 16v24c0 8.836 7.163 16 16 16s16-7.164 16-16v-24c0-8.836-7.163-16-16-16zm-158.673-55.804-17.069 17.06c-10.099 10.093-2.84 27.317 11.311 27.317 4.093 0 8.187-1.561 11.311-4.683l17.069-17.06c6.25-6.247 6.253-16.377.007-22.627-6.248-6.25-16.378-6.254-22.629-.007zm330.673-135.696c0 94.565-76.935 171.5-171.5 171.5s-171.5-76.935-171.5-171.5 76.935-171.5 171.5-171.5 171.5 76.935 171.5 171.5zm-32 0c0-76.92-62.579-139.5-139.5-139.5s-139.5 62.58-139.5 139.5 62.579 139.5 139.5 139.5 139.5-62.58 139.5-139.5z"/></svg>