<svg id="Layer_1" enable-background="new 0 0 512 512" height="512" viewBox="0 0 512 512" width="512" xmlns="http://www.w3.org/2000/svg"><g><path d="m256 48c-8.836 0-16-7.164-16-16v-16c0-8.836 7.164-16 16-16 8.837 0 16 7.164 16 16v16c0 8.836-7.163 16-16 16z"/><path d="m97.608 113.608c-4.095 0-8.189-1.562-11.313-4.687l-11.314-11.313c-6.249-6.248-6.249-16.379 0-22.627 6.248-6.249 16.379-6.249 22.627 0l11.313 11.313c6.249 6.248 6.249 16.379 0 22.627-3.124 3.125-7.218 4.687-11.313 4.687z"/><path d="m32 272h-16c-8.836 0-16-7.164-16-16s7.164-16 16-16h16c8.836 0 16 7.164 16 16s-7.164 16-16 16z"/><path d="m86.294 441.706c-4.095 0-8.189-1.562-11.313-4.687-6.249-6.248-6.249-16.379 0-22.627l11.313-11.313c6.248-6.249 16.379-6.249 22.627 0 6.249 6.248 6.249 16.379 0 22.627l-11.313 11.313c-3.124 3.125-7.219 4.687-11.314 4.687z"/><path d="m256 512c-8.836 0-16-7.164-16-16v-16c0-8.836 7.164-16 16-16 8.837 0 16 7.164 16 16v16c0 8.836-7.163 16-16 16z"/><path d="m425.706 441.706c-4.095 0-8.188-1.562-11.313-4.686l-11.314-11.313c-6.248-6.248-6.249-16.378-.001-22.627s16.378-6.25 22.628-.001l11.314 11.313c6.248 6.248 6.249 16.378.001 22.627-3.125 3.124-7.22 4.687-11.315 4.687z"/><path d="m496 272h-16c-8.837 0-16-7.164-16-16s7.163-16 16-16h16c8.837 0 16 7.164 16 16s-7.163 16-16 16z"/><path d="m414.392 113.608c-4.096 0-8.189-1.562-11.314-4.687-6.248-6.249-6.247-16.379.001-22.627l11.314-11.313c6.249-6.249 16.379-6.248 22.628.001 6.248 6.249 6.247 16.379-.001 22.627l-11.314 11.313c-3.125 3.124-7.22 4.686-11.314 4.686z"/><path d="m256 440c-101.458 0-184-82.542-184-184s82.542-184 184-184 184 82.542 184 184-82.542 184-184 184zm0-336c-83.813 0-152 68.187-152 152s68.187 152 152 152 152-68.187 152-152-68.187-152-152-152z"/></g></svg>