<svg height="512pt" viewBox="1 0 511 512" width="512pt" xmlns="http://www.w3.org/2000/svg"><path d="m256.5 91c-90.902344 0-165 74.097656-165 165 0 90.898438 74.097656 165 165 165 90.898438 0 165-74.101562 165-165 0-90.902344-74.101562-165-165-165zm0 0" fill="#ffd396"/><path d="m421.5 256c0 90.898438-74.101562 165-165 165v-330c90.898438 0 165 74.097656 165 165zm0 0" fill="#ffb64c"/><path d="m85.757812 401.472656-40.988281-10.984375c-7.996093-2.140625-12.757812-10.371093-10.601562-18.371093l10.984375-40.984376c2.152344-8.011718 10.386718-12.757812 18.367187-10.605468 8 2.140625 12.761719 10.371094 10.605469 18.371094l-7.101562 26.496093 26.496093 7.105469c8 2.140625 12.761719 10.371094 10.605469 18.367188-2.160156 8.054687-10.421875 12.75-18.367188 10.605468zm0 0" fill="#ffd396"/><path d="m453.375 191.984375c-9.898438 0-17.054688-9.402344-14.5-18.878906l7.101562-26.5-26.5-7.105469c-7.996093-2.136719-12.757812-10.371094-10.601562-18.367188 2.152344-8.015624 10.441406-12.730468 18.367188-10.605468l40.984374 10.984375c8 2.140625 12.761719 10.371093 10.605469 18.371093l-10.984375 40.984376c-1.800781 6.710937-7.851562 11.117187-14.472656 11.117187zm0 0" fill="#ffb64c"/><path d="m125.527344 104.140625c-9.898438 0-17.054688-9.402344-14.503906-18.882813l10.988281-40.984374c2.152343-8 10.371093-12.730469 18.367187-10.605469l40.988282 10.984375c7.996093 2.140625 12.757812 10.371094 10.605468 18.371094-2.15625 8.027343-10.328125 12.832031-18.371094 10.605468l-26.5-7.105468-7.101562 26.5c-1.800781 6.707031-7.851562 11.117187-14.472656 11.117187zm0 0" fill="#ffd396"/><path d="m372.617188 478.335938-40.984376-10.988282c-8-2.136718-12.761718-10.371094-10.605468-18.367187 2.152344-8.015625 10.371094-12.761719 18.367187-10.605469l26.5 7.101562 7.105469-26.496093c2.152344-8 10.441406-12.6875 18.367188-10.605469 8 2.136719 12.757812 10.371094 10.605468 18.367188l-10.988281 40.988281c-2.160156 8.050781-10.421875 12.746093-18.367187 10.605469zm0 0" fill="#ffb64c"/><path d="m45.152344 180.867188-10.988282-40.984376c-2.152343-8 2.609376-16.230468 10.605469-18.371093l40.988281-10.984375c8.039063-2.152344 16.214844 2.59375 18.367188 10.605468 2.152344 7.996094-2.605469 16.230469-10.605469 18.367188l-26.5 7.105469 7.105469 26.5c2.152344 7.996093-2.605469 16.230469-10.605469 18.367187-7.945312 2.144532-16.207031-2.550781-18.367187-10.605468zm0 0" fill="#ffd396"/><path d="m408.871094 390.867188c-2.152344-7.996094 2.609375-16.230469 10.605468-18.367188l26.5-7.105469-7.105468-26.5c-2.152344-7.996093 2.609375-16.230469 10.605468-18.367187 8.015626-2.167969 16.230469 2.59375 18.371094 10.605468l10.984375 40.984376c2.152344 8-2.605469 16.230468-10.605469 18.371093l-40.984374 10.984375c-7.945313 2.144532-16.207032-2.550781-18.371094-10.605468zm0 0" fill="#ffb64c"/><path d="m373 93.019531-7.105469-26.496093-26.5 7.101562c-8.011719 2.214844-16.214843-2.59375-18.367187-10.605469-2.152344-7.996093 2.605468-16.230469 10.605468-18.367187l40.984376-10.988282c8.027343-2.136718 16.214843 2.59375 18.367187 10.605469l10.988281 40.988281c2.152344 7.996094-2.605468 16.230469-10.605468 18.367188-7.945313 2.144531-16.207032-2.550781-18.367188-10.605469zm0 0" fill="#ffb64c"/><path d="m122.011719 467.730469-10.984375-40.988281c-2.152344-7.996094 2.605468-16.230469 10.605468-18.367188 8.039063-2.109375 16.214844 2.578125 18.367188 10.605469l7.105469 26.496093 26.496093-7.101562c8.027344-2.167969 16.21875 2.59375 18.371094 10.605469 2.152344 7.996093-2.605468 16.230469-10.605468 18.367187l-40.984376 10.988282c-7.949218 2.140624-16.207031-2.554688-18.371093-10.605469zm0 0" fill="#ffd396"/><path d="m34.894531 296.605469-30-30c-5.859375-5.859375-5.859375-15.351563 0-21.210938l30-30c5.859375-5.859375 15.351563-5.859375 21.210938 0s5.859375 15.351563 0 21.210938l-19.394531 19.394531 19.394531 19.394531c5.859375 5.859375 5.859375 15.351563 0 21.210938s-15.351563 5.859375-21.210938 0zm0 0" fill="#ffd396"/><path d="m456.894531 296.605469c-5.859375-5.859375-5.859375-15.351563 0-21.210938l19.394531-19.394531-19.394531-19.394531c-5.859375-5.859375-5.859375-15.351563 0-21.210938s15.351563-5.859375 21.210938 0l30 30c5.859375 5.859375 5.859375 15.351563 0 21.210938l-30 30c-5.859375 5.859375-15.351563 5.859375-21.210938 0zm0 0" fill="#ffb64c"/><path d="m297 55.5c-5.703125 6-15.300781 6-21 0l-19.5-19.199219-19.5 19.199219c-5.703125 6-15.300781 6-21 0-6-5.699219-6-15.300781 0-21l30-30c2.699219-3 6.597656-4.5 10.5-4.5 3.898438 0 7.800781 1.5 10.5 4.5l30 30c6 5.699219 6 15.300781 0 21zm0 0" fill="#ffd396"/><path d="m297 477.5-30 30c-2.699219 3-6.601562 4.5-10.5 4.5-3.902344 0-7.800781-1.5-10.5-4.5l-30-30c-6-5.699219-6-15.300781 0-21 5.699219-6 15.296875-6 21 0l19.5 19.199219 19.5-19.199219c5.703125-6 15.300781-6 21 0 6 5.699219 6 15.300781 0 21zm0 0" fill="#ffd396"/><g fill="#ffb64c"><path d="m297 456.5c6 5.699219 6 15.300781 0 21l-30 30c-2.699219 3-6.601562 4.5-10.5 4.5v-36.300781l19.5-19.199219c5.699219-6 15.296875-6 21 0zm0 0"/><path d="m276 55.5-19.5-19.199219v-36.300781c3.898438 0 7.800781 1.5 10.5 4.5l30 30c6 5.699219 6 15.300781 0 21-5.703125 6-15.300781 6-21 0zm0 0"/></g></svg>