<svg id="Layer_1" enable-background="new 0 0 512 512" height="512" viewBox="0 0 512 512" width="512" xmlns="http://www.w3.org/2000/svg"><g><path d="m256 48c-8.836 0-16-7.164-16-16v-16c0-8.836 7.164-16 16-16 8.837 0 16 7.164 16 16v16c0 8.836-7.163 16-16 16z"/><path d="m97.608 113.608c-4.095 0-8.189-1.562-11.313-4.687l-11.314-11.313c-6.249-6.248-6.249-16.379 0-22.627 6.248-6.249 16.379-6.249 22.627 0l11.313 11.313c6.249 6.248 6.249 16.379 0 22.627-3.124 3.125-7.218 4.687-11.313 4.687z"/><path d="m32 272h-16c-8.836 0-16-7.164-16-16s7.164-16 16-16h16c8.836 0 16 7.164 16 16s-7.164 16-16 16z"/><path d="m86.294 441.706c-4.095 0-8.189-1.562-11.313-4.687-6.249-6.248-6.249-16.379 0-22.627l11.313-11.313c6.248-6.249 16.379-6.249 22.627 0 6.249 6.248 6.249 16.379 0 22.627l-11.313 11.313c-3.124 3.125-7.219 4.687-11.314 4.687z"/><path d="m256 512c-8.836 0-16-7.164-16-16v-16c0-8.836 7.164-16 16-16 8.837 0 16 7.164 16 16v16c0 8.836-7.163 16-16 16z"/><path d="m425.706 441.706c-4.095 0-8.188-1.562-11.313-4.686l-11.314-11.313c-6.248-6.248-6.249-16.378-.001-22.627s16.378-6.25 22.628-.001l11.314 11.313c6.248 6.248 6.249 16.378.001 22.627-3.125 3.124-7.22 4.687-11.315 4.687z"/><path d="m496 272h-16c-8.837 0-16-7.164-16-16s7.163-16 16-16h16c8.837 0 16 7.164 16 16s-7.163 16-16 16z"/><path d="m414.392 113.608c-4.096 0-8.189-1.562-11.314-4.687-6.248-6.249-6.247-16.379.001-22.627l11.314-11.313c6.249-6.249 16.379-6.248 22.628.001 6.248 6.249 6.247 16.379-.001 22.627l-11.314 11.313c-3.125 3.124-7.22 4.686-11.314 4.686z"/><path d="m436.662 220.977c-4.695-24.4-14.165-47.258-28.148-67.939-13.265-19.617-29.936-36.288-49.552-49.552-20.683-13.983-43.54-23.453-67.93-28.146-22.96-4.433-47.117-4.431-70.055-.002-24.399 4.694-47.257 14.165-67.939 28.148-19.616 13.265-36.287 29.936-49.552 49.553-13.983 20.683-23.453 43.541-28.145 67.929-2.217 11.481-3.341 23.267-3.341 35.032s1.124 23.551 3.338 35.022c4.694 24.398 14.164 47.256 28.147 67.94 13.265 19.616 29.936 36.287 49.553 49.552 20.681 13.983 43.539 23.453 67.929 28.146 11.48 2.216 23.266 3.34 35.033 3.34 11.766 0 23.553-1.124 35.022-3.338 24.399-4.694 47.257-14.165 67.939-28.148 19.616-13.264 36.287-29.935 49.553-49.553 13.982-20.68 23.452-43.538 28.146-67.929 2.216-11.479 3.34-23.265 3.34-35.032s-1.124-23.553-3.338-35.023zm-165.814 171.018c-.855-.007-1.709-.022-2.56-.045-5.418-.145-6.827-7.614-1.795-9.628 50.111-20.05 85.507-69.056 85.507-126.322 0-57.267-35.397-106.273-85.508-126.323-4.998-2-3.653-9.479 1.728-9.625 1.256-.034 2.516-.051 3.78-.051 76.941 0 138.961 63.896 135.891 141.519-2.891 73.078-63.909 131.079-137.043 130.475z"/></g></svg>