<svg id="bold" enable-background="new 0 0 24 24" height="512" viewBox="0 0 24 24" width="512" xmlns="http://www.w3.org/2000/svg"><path d="m5.25 5.5h-3.5c-.552 0-1-.448-1-1s.448-1 1-1h3.5c.552 0 1 .448 1 1s-.448 1-1 1z"/><path d="m5.25 10.5h-3.5c-.552 0-1-.448-1-1s.448-1 1-1h3.5c.552 0 1 .448 1 1s-.448 1-1 1z"/><path d="m5.25 15.5h-3.5c-.552 0-1-.448-1-1s.448-1 1-1h3.5c.552 0 1 .448 1 1s-.448 1-1 1z"/><path d="m5.25 20.5h-3.5c-.552 0-1-.448-1-1s.448-1 1-1h3.5c.552 0 1 .448 1 1s-.448 1-1 1z"/><path d="m19.25 0h-13.5c-1.517 0-2.75 1.233-2.75 2.75v18.5c0 1.517 1.233 2.75 2.75 2.75h13.5c1.517 0 2.75-1.233 2.75-2.75v-18.5c0-1.517-1.233-2.75-2.75-2.75zm-10.25 5h4c.552 0 1 .448 1 1s-.448 1-1 1h-4c-.552 0-1-.448-1-1s.448-1 1-1zm9 14h-9c-.552 0-1-.448-1-1s.448-1 1-1h9c.552 0 1 .448 1 1s-.448 1-1 1zm0-4h-9c-.552 0-1-.448-1-1s.448-1 1-1h9c.552 0 1 .448 1 1s-.448 1-1 1zm0-4h-9c-.552 0-1-.448-1-1s.448-1 1-1h9c.552 0 1 .448 1 1s-.448 1-1 1z"/></svg>