<svg id="Layer_35" enable-background="new 0 0 64 64" height="512" viewBox="0 0 64 64" width="512" xmlns="http://www.w3.org/2000/svg"><path d="m46.111 53.107c.559-.561.889-1.308.889-2.107v-1c0-5.611-3.101-10.505-7.675-13.077-.857 1.187-1.325 2.608-1.325 4.077v7h3c.551 0 1-.449 1-1v-3h2v3c0 1.654-1.346 3-3 3h-5.556c.344.591.556 1.268.556 2 0 .973-.363 1.855-.944 2.549z"/><path d="m36 41c0-1.768.53-3.479 1.498-4.942-1.705-.675-3.556-1.058-5.498-1.058s-3.793.383-5.498 1.058c.968 1.463 1.498 3.174 1.498 4.942v7h4 4z"/><path d="m23 48h3v-7c0-1.469-.468-2.89-1.325-4.077-4.574 2.572-7.675 7.466-7.675 13.077v1c0 .799.33 1.546.889 2.107l6.843.893h7.268c1.103 0 2-.897 2-2s-.897-2-2-2h-9c-1.654 0-3-1.346-3-3v-3h2v3c0 .551.449 1 1 1z"/><path d="m49 41.337c0-.832-.622-1.541-1.447-1.648l-2.291-.299c.878 1.096 1.618 2.304 2.207 3.596.854-.067 1.531-.776 1.531-1.649z"/><circle cx="42" cy="9" r="6"/><path d="m40 27c0 2.75-1.395 5.18-3.515 6.62.888.244 1.746.555 2.57.933-.025-.183-.055-.364-.055-.553 0-2.206 1.794-4 4-4h8c.551 0 1-.449 1-1v-3h2v3c0 1.654-1.346 3-3 3h-8c-1.103 0-2 .897-2 2s.897 2 2 2h6.268l6.843-.893c.559-.56.889-1.308.889-2.107v-1c0-8.271-6.729-15-15-15-2.854 0-5.562.791-7.934 2.28 3.411.914 5.934 4.024 5.934 7.72z"/><circle cx="22" cy="9" r="6"/><path d="m37.553 57.689-20.424-2.664c-.129-.017-.259-.025-.389-.025h-.74c-1.654 0-3 1.346-3 3s1.346 3 3 3h20 1.338c.916 0 1.662-.746 1.662-1.663 0-.832-.622-1.54-1.447-1.648z"/><circle cx="32" cy="27" r="6"/><path d="m58 37h-.74c-.129 0-.259.008-.387.025l-7.927 1.034c1.221.603 2.054 1.854 2.054 3.278 0 .602-.16 1.161-.418 1.663h7.418c1.654 0 3-1.346 3-3s-1.346-3-3-3z"/><path d="m48 55h-.74c-.129 0-.259.008-.388.025l-7.926 1.034c1.221.603 2.054 1.854 2.054 3.278 0 .602-.16 1.161-.418 1.663h7.418c1.654 0 3-1.346 3-3s-1.346-3-3-3z"/><path d="m19.402 38.626-12.274-1.601c-.128-.017-.258-.025-.388-.025h-.74c-1.654 0-3 1.346-3 3s1.346 3 3 3h10.526c.73-1.609 1.705-3.079 2.876-4.374z"/><path d="m14.732 36h6.268c1.103 0 2-.897 2-2s-.897-2-2-2h-8c-1.654 0-3-1.346-3-3v-3h2v3c0 .551.449 1 1 1h8c2.206 0 4 1.794 4 4 0 .189-.03.37-.056.553.824-.378 1.682-.689 2.57-.933-2.119-1.44-3.514-3.87-3.514-6.62 0-3.696 2.523-6.806 5.934-7.72-2.372-1.489-5.08-2.28-7.934-2.28-8.271 0-15 6.729-15 15v1c0 .799.33 1.546.889 2.107z"/></svg>