<svg xmlns="http://www.w3.org/2000/svg" xmlns:xlink="http://www.w3.org/1999/xlink" viewBox="0 0 48 48"><defs><style>.cls-1{clip-rule:evenodd;}.cls-2{clip-path:url(#clip-path);}.cls-3{clip-path:url(#clip-path-2);}.cls-4{fill-rule:evenodd;}.cls-5{clip-path:url(#clip-path-3);}</style><clipPath id="clip-path"><rect x="20" y="5" width="1" height="1"/></clipPath><clipPath id="clip-path-2"><rect width="48" height="48"/></clipPath><clipPath id="clip-path-3"><polygon class="cls-1" points="19 6 18 6 17 6 17 7 16 7 15 7 15 8 14 8 14 9 13 9 13 10 12 10 12 11 11 11 11 12 10 12 10 13 9 13 9 15 8 15 8 17 7 17 7 20 6 20 6 28 7 28 7 31 8 31 8 33 9 33 9 35 10 35 10 36 11 36 11 37 12 37 12 38 13 38 13 39 14 39 15 39 15 40 16 40 16 41 17 41 18 41 19 41 19 42 20 42 21 42 22 42 23 42 23 43 25 43 26 43 27 43 27 42 30 42 32 42 32 41 34 41 34 40 36 40 36 39 37 39 37 38 38 38 38 37 39 37 39 36 40 36 40 35 41 35 41 33 40 33 40 34 39 34 38 34 37 34 36 34 36 35 34 35 32 35 30 35 30 34 27 34 26 34 26 33 25 33 25 32 23 32 23 31 22 31 22 30 21 30 21 29 20 29 20 28 19 28 19 27 18 27 18 25 17 25 17 22 16 22 16 14 17 14 17 11 18 11 18 9 19 9 19 8 20 8 20 6 19 6"/></clipPath></defs><title>资源 4</title><g id="图层_2" data-name="图层 2"><g id="图层_1-2" data-name="图层 1"><rect x="20" y="5" width="1" height="1"/><g class="cls-2"><rect width="48" height="48"/><g class="cls-3"><rect x="15" width="11" height="11"/></g></g><polygon class="cls-4" points="19 6 18 6 17 6 17 7 16 7 15 7 15 8 14 8 14 9 13 9 13 10 12 10 12 11 11 11 11 12 10 12 10 13 9 13 9 15 8 15 8 17 7 17 7 20 6 20 6 28 7 28 7 31 8 31 8 33 9 33 9 35 10 35 10 36 11 36 11 37 12 37 12 38 13 38 13 39 14 39 15 39 15 40 16 40 16 41 17 41 18 41 19 41 19 42 20 42 21 42 22 42 23 42 23 43 25 43 26 43 27 43 27 42 30 42 32 42 32 41 34 41 34 40 36 40 36 39 37 39 37 38 38 38 38 37 39 37 39 36 40 36 40 35 41 35 41 33 40 33 40 34 39 34 38 34 37 34 36 34 36 35 34 35 32 35 30 35 30 34 27 34 26 34 26 33 25 33 25 32 23 32 23 31 22 31 22 30 21 30 21 29 20 29 20 28 19 28 19 27 18 27 18 25 17 25 17 22 16 22 16 14 17 14 17 11 18 11 18 9 19 9 19 8 20 8 20 6 19 6"/><g class="cls-5"><rect width="48" height="48"/><g class="cls-3"><rect x="1" y="1" width="45" height="47"/></g></g></g></g></svg>