<svg height="512pt" viewBox="0 0 512 512" width="512pt" xmlns="http://www.w3.org/2000/svg"><path d="m229.96875 1.296875c-8.230469.847656-14.234375 8.203125-13.402344 16.449219.851563 8.230468 8.015625 14.121094 16.449219 13.402344 15.117187-1.550782 30.851563-1.550782 45.96875 0 .527344.042968 1.039063.074218 1.539063.074218 7.601562 0 14.121093-5.757812 14.910156-13.476562.835937-8.246094-5.171875-15.601563-13.402344-16.449219-17.109375-1.730469-34.953125-1.730469-52.0625 0zm0 0"/><path d="m233.015625 480.828125c-8.4375-.585937-15.597656 5.1875-16.449219 13.402344-.832031 8.25 5.171875 15.601562 13.402344 16.453125 17.410156 1.757812 34.679688 1.753906 52.0625 0 8.230469-.851563 14.238281-8.203125 13.402344-16.453125-.835938-8.214844-7.71875-13.988281-16.449219-13.402344-15.117187 1.554687-30.851563 1.554687-45.96875 0zm0 0"/><path d="m150.503906 20.171875c-15.710937 7.050781-30.753906 15.707031-45.089844 26.015625-6.722656 4.832031-9.261718 14.207031-4.414062 20.933594 4.824219 6.699218 15.171875 8.265625 21.933594 3.410156 12.210937-8.789062 25.871094-16.746094 39.816406-22.96875 7.570312-3.382812 10.957031-12.257812 7.570312-19.816406-3.382812-7.546875-12.214843-10.945313-19.816406-7.574219zm0 0"/><path d="m389.066406 441.46875c-12.210937 8.785156-25.871094 16.75-39.8125 22.96875-7.574218 3.382812-10.957031 12.261719-7.574218 19.820312 3.332031 7.417969 12.070312 10.992188 19.820312 7.570313 15.707031-7.050781 31.75-15.707031 46.085938-26.015625 6.722656-4.832031 8.261718-14.207031 3.414062-20.933594-4.835938-6.707031-15.179688-8.214844-21.933594-3.410156zm0 0"/><path d="m46.1875 105.414062c-10.367188 14.414063-19.035156 29.527344-26.015625 45.089844-3.382813 7.558594.015625 16.433594 7.574219 19.816406 7.738281 3.414063 16.484375-.140624 19.816406-7.570312 6.152344-13.792969 14.113281-28.511719 22.96875-40.816406 4.851562-6.722656 3.3125-16.097656-3.410156-20.933594-6.738282-4.863281-16.113282-2.324219-20.933594 4.414062zm0 0"/><path d="m465.8125 407.585938c10.367188-14.414063 19.035156-30.53125 26.015625-46.085938 3.386719-7.5625-.011719-16.4375-7.570313-19.820312-7.589843-3.339844-16.421874.015624-19.820312 7.574218-6.152344 13.792969-14.113281 28.507813-22.96875 40.8125-4.847656 6.722656-3.3125 16.097656 3.414062 20.933594 6.761719 4.855469 16.113282 3.285156 20.929688-3.414062zm0 0"/><path d="m16.230469 295.507812c.496093 0 1.023437-.03125 1.539062-.074218 8.230469-.847656 14.238281-8.203125 13.402344-16.449219-1.5625-15.21875-1.5625-30.753906 0-45.96875.835937-8.246094-5.171875-15.597656-13.402344-16.449219-8.554687-.527344-15.601562 5.1875-16.449219 13.402344-1.761718 17.410156-1.757812 34.679688 0 52.0625.789063 7.71875 7.308594 13.476562 14.910157 13.476562zm0 0"/><path d="m494.230469 216.566406c-8.230469.851563-14.238281 8.203125-13.402344 16.449219 1.5625 15.21875 1.5625 30.753906 0 45.96875-.835937 8.246094 5.171875 15.601563 13.402344 16.449219.527343.042968 1.042969.074218 1.539062.074218 7.601563 0 14.121094-5.757812 14.910157-13.480468 1.761718-17.410156 1.757812-34.675782 0-52.058594-.832032-8.214844-8.082032-13.929688-16.449219-13.402344zm0 0"/><path d="m20.171875 362.5c7.050781 15.707031 15.707031 30.75 26.015625 45.085938 4.820312 6.699218 14.171875 8.265624 20.933594 3.414062 6.722656-4.835938 8.261718-14.210938 3.414062-20.933594-8.789062-12.210937-16.75-26.871094-22.96875-40.8125-3.386718-7.5625-12.234375-10.914062-19.820312-7.574218-7.558594 3.382812-10.957032 13.257812-7.574219 20.820312zm0 0"/><path d="m491.828125 150.503906c-7.046875-15.710937-15.707031-31.753906-26.015625-46.089844-4.816406-6.722656-14.191406-8.230468-20.933594-3.414062-6.722656 4.835938-8.261718 14.210938-3.410156 20.933594 8.789062 12.210937 16.746094 26.871094 22.96875 40.816406 3.328125 7.417969 12.070312 10.988281 19.816406 7.570312 7.5625-3.382812 10.960938-12.257812 7.574219-19.816406zm0 0"/><path d="m122.933594 441.46875c-6.753906-4.835938-17.128906-3.324219-21.933594 3.414062-4.847656 6.722657-2.308594 16.097657 4.414062 20.929688 14.414063 10.367188 29.53125 19.035156 45.089844 26.019531 7.738282 3.414063 16.484375-.144531 19.816406-7.574219 3.386719-7.558593 0-16.4375-7.570312-19.820312-13.792969-6.15625-27.507812-14.113281-39.816406-22.96875zm0 0"/><path d="m341.679688 27.742188c-3.382813 7.5625 0 16.4375 7.574218 19.820312 13.792969 6.152344 27.507813 14.109375 39.8125 22.96875 6.761719 4.855469 17.113282 3.285156 21.933594-3.414062 4.847656-6.722657 3.308594-16.097657-3.414062-20.929688-14.414063-10.367188-30.527344-19.035156-46.085938-26.015625-7.601562-3.371094-16.421875.027344-19.820312 7.570313zm0 0"/><path d="m256 60c-107.519531 0-196 88.480469-196 196s88.480469 196 196 196 196-88.480469 196-196-88.480469-196-196-196zm0 0"/></svg>